<svg xmlns="http://www.w3.org/2000/svg" version="1.1" x="0" y="0" viewBox="0 0 334.7 46.2" xml:space="preserve"><style type="text/css">
	.st0{fill:#FFFFFF;}
	.st1{fill:#28AB61;}
	.st2{fill:none;stroke:#FFFFFF;stroke-width:0;stroke-linecap:round;stroke-linejoin:round;}
</style><path class="st0" d="M163.4 16.5c0-8.7-7-15.7-15.7-15.7h-21.2v44.6h8.9l0-35.7h12.5c3.6 0 6.6 3 6.6 6.6s-3 6.6-6.6 6.6l0 0h-2.1l-1.5 2.1 9.6 20.4h9.5l-7.3-15.7C160.5 27 163.4 22.1 163.4 16.5zM176.1 23.1c0-12 13-17.2 21.7-11.6l5.7-6.6c-3.9-3.1-8.9-4.9-14.3-4.9 -12.7 0-23.1 10.4-23.1 23.1 0 12.7 10.4 23.1 23.1 23.1 5.6 0 10.8-2 14.8-5.3l-5.7-6.6C189.9 40.7 176.1 35.6 176.1 23.1z"/><polygon class="st0" points="99.4 0.8 76.7 45.4 86.7 45.4 100.5 18.3 113.2 45.4 123.1 45.4 102 0.8 "/><path class="st0" d="M286.7 7.3c-2-2-4.4-3.6-7.1-4.8 -2.7-1.1-5.7-1.7-8.7-1.7h-15.6v44.5h3.6v0.1h12c3 0 5.9-0.6 8.7-1.8 2.7-1.1 5-2.7 7.1-4.8 2.1-2 3.7-4.4 4.8-7.1 1.2-2.7 1.8-5.7 1.8-8.7 0-3-0.6-5.9-1.8-8.7C290.3 11.7 288.8 9.4 286.7 7.3zM270.9 36.5h-6.7V9.7h6.7c7.4 0 13.4 6 13.4 13.4C284.3 30.4 278.3 36.5 270.9 36.5z"/><polygon class="st0" points="324.7 0.7 312.9 23.8 302.1 0.7 292.3 0.7 308.4 34.8 308.4 45.4 317.4 45.4 317.4 34.7 334.7 0.7 "/><polygon class="st0" points="227.9 0.8 205.1 45.4 215.1 45.4 228.9 18.3 241.7 45.4 251.5 45.4 230.5 0.8 "/><path class="st1" d="M77.2 11.8l-4.2 2.4 -6.2 1.7 -6.9-1.2 -1.4 2.8 1.4 1 -1.7 0.5L32.9 1.4l-7.9 3L26.4 5l-9.1 4.6 2 0.5 -9.5 6L0.6 45.4l12.3 0 13.9-11.8 -2.2 3.4 4.5 8.3h13.2l-3.4-7 30.9-6 10.5-17L77.2 11.8zM66.1 26.9c-1.2 0-2.3-0.6-2.9-1.6l-22 6.4c0 0 0 0 0 0 0 2.3-1.9 4.2-4.2 4.2s-4.2-1.9-4.2-4.2c0-1.5 0.8-2.9 2.1-3.6l-2.3-11c-0.1 0-0.2 0-0.4 0 -1.2 0-2.3-0.4-3.2-1.1l-15.4 19c0.7 0.8 1.1 1.8 1.1 2.8 0 2.4-1.9 4.4-4.4 4.4 -2.4 0-4.4-1.9-4.4-4.4 0-2.4 1.9-4.4 4.4-4.4 0.6 0 1.1 0.1 1.7 0.3l15.7-19.3c-0.5-0.8-0.8-1.8-0.8-2.8 0-3 2.4-5.4 5.4-5.4s5.4 2.4 5.4 5.4c0 2.2-1.3 4-3.1 4.9l2.3 11c0.1 0 0.1 0 0.2 0 1.6 0 3 0.9 3.7 2.2l21.9-6.4c0-1.9 1.6-3.4 3.5-3.4 1.9 0 3.5 1.6 3.5 3.5S68 26.9 66.1 26.9z"/><polygon class="st1" points="8.2 17.6 2.6 21 0 26.6 5 26.6 "/><path class="st1" d="M59.7 37.7c0-0.3 0-1.5 0-1.9l0-0.2 -14 4 2.7 3.1 2.2 2.6h9.3L59.7 37.7 59.7 37.7z"/><line class="st2" x1="8.5" y1="39.6" x2="8.5" y2="39.6"/><line class="st2" x1="32.2" y1="10.5" x2="32.2" y2="10.5"/><line class="st2" x1="32.2" y1="10.5" x2="32.2" y2="10.5"/></svg>